# xmcd CD database file
#
# Track frame offsets:
#	150
#	15051
#	25888
#	39062
#	48024
#	58852
#	70176
#	80961
#	100092
#	113754
#	125072
#	134963
#	147536
#
# Disc length: 2111 seconds
#
# Revision: 0
# Processed by: cddbd v1.5.2PL0 Copyright (c) Steve Scherf et al.
# Submitted via: CDex 1.79
#
DISCID=b3083d0d
DTITLE=Dan Familiar - Fallen Far From Gray
DYEAR=2015
DGENRE=Country
TTITLE0=01 Just Buried
TTITLE1=02 Never Comes, Never Goes
TTITLE2=03 Wonderfully Dead
TTITLE3=04 Never Comes, Never Goes pt2
TTITLE4=05 Pennies From Their Eyes
TTITLE5=06 Can't let (you) go
TTITLE6=07 Caught up in teh rain
TTITLE7=08 White, White Coffin
TTITLE8=09 Wrong From The Start
TTITLE9=10 Midnight Train
TTITLE10=11 Chasing Different Ghosts
TTITLE11=12 Angel Dust
TTITLE12=13 Soon Gave In
EXTD=YEAR: 2015
EXTT0=
EXTT1=
EXTT2=
EXTT3=
EXTT4=
EXTT5=
EXTT6=
EXTT7=
EXTT8=
EXTT9=
EXTT10=
EXTT11=
EXTT12=
PLAYORDER=
